<svg version="1.1" id="Layer_1" xmlns="http://www.w3.org/2000/svg" xmlns:xlink="http://www.w3.org/1999/xlink" x="0px" y="0px"
	 width="100%" viewBox="0 0 839 839" enable-background="new 0 0 839 839" xml:space="preserve">
<path fill="#0E1215" opacity="1.000000" stroke="none" 
	d="
M451.000000,840.000000 
	C300.666718,840.000000 150.833420,840.000000 1.000100,840.000000 
	C1.000067,560.333435 1.000067,280.666931 1.000033,1.000288 
	C280.666473,1.000192 560.332947,1.000192 839.999512,1.000096 
	C839.999695,280.666382 839.999695,560.332764 839.999878,839.999573 
	C710.500000,840.000000 581.000000,840.000000 451.000000,840.000000 
M302.127197,595.132019 
	C296.432739,594.286560 293.457123,590.842102 291.456696,585.508850 
	C287.327789,574.501038 282.377472,563.802551 278.195801,552.812866 
	C276.355713,547.976990 274.095428,545.066040 268.024017,547.128784 
	C262.802734,559.450073 257.311371,572.211853 251.999680,585.048035 
	C250.088333,589.666992 248.074356,593.887451 242.352219,594.604980 
	C241.825180,594.671021 241.418854,595.699524 240.437531,596.933838 
	C248.151108,596.933838 255.088135,596.933838 262.025177,596.933838 
	C262.152740,596.532410 262.280304,596.130981 262.407867,595.729553 
	C261.156921,595.161621 259.946686,594.241638 258.647400,594.091309 
	C254.657196,593.629700 254.402466,591.552673 255.232376,588.176086 
	C256.459442,583.183655 258.656494,580.284058 264.421417,581.290100 
	C267.328064,581.797363 270.420166,581.158264 273.380646,581.478638 
	C274.738129,581.625488 276.546448,582.519409 277.164368,583.625366 
	C278.736511,586.439331 279.752930,589.563660 281.070221,592.753723 
	C278.195190,593.765076 275.777832,594.615417 273.360443,595.465759 
	C273.464844,595.939575 273.569214,596.413330 273.673615,596.887085 
	C283.449890,596.887085 293.226166,596.887085 303.856171,597.304504 
	C312.806946,597.304504 321.757751,597.304504 330.708527,597.304504 
	C330.775146,596.799438 330.841766,596.294312 330.908356,595.789246 
	C330.196198,595.272827 329.492950,594.323608 328.770416,594.308655 
	C323.000031,594.189453 322.210388,590.645935 322.309753,585.883911 
	C322.507874,576.391418 322.368439,566.891846 322.368439,557.395203 
	C322.368439,554.817139 322.368439,552.239075 322.368439,549.934082 
	C332.746094,548.025269 340.818024,549.363586 344.683746,559.818237 
	C344.984680,560.632141 346.380249,561.041382 347.848206,562.030090 
	C347.848206,556.358521 347.848206,551.727844 347.848206,547.142578 
	C332.593140,547.142578 317.443695,547.142578 300.717529,547.142578 
	C302.767242,548.715942 303.538300,549.813232 304.382935,549.873108 
	C309.410919,550.229736 310.006500,553.376526 309.924988,557.526123 
	C309.748322,566.519470 309.532928,575.536072 309.993164,584.509277 
	C310.283722,590.174438 309.383179,594.223572 302.127197,595.132019 
M477.257172,413.294739 
	C477.257172,371.194733 477.257172,329.094727 477.257172,286.368439 
	C475.006012,286.368439 473.216034,286.368439 471.426025,286.368439 
	C456.438019,286.368439 441.449982,286.368439 426.461975,286.368439 
	C404.479553,286.368469 382.497070,286.350830 360.514740,286.399017 
	C358.570892,286.403290 355.863678,285.404388 355.240601,289.648010 
	C355.171783,330.466125 355.123444,371.284302 354.999939,412.102264 
	C354.988586,415.859436 357.286774,415.891663 359.966217,415.890411 
	C397.624329,415.872772 435.282440,415.895966 472.940369,415.811188 
	C474.342651,415.808014 475.742676,414.809204 477.257172,413.294739 
M445.858063,188.273193 
	C460.357727,177.094849 474.966461,166.053345 489.280853,154.642578 
	C492.893951,151.762405 495.173950,151.585861 499.034851,154.364975 
	C554.321777,194.160934 609.730835,233.787369 665.192505,273.339630 
	C668.125854,275.431519 669.111450,277.583405 669.103760,281.113037 
	C668.989868,333.934570 669.025024,386.756409 669.025085,439.578186 
	C669.025085,441.329498 669.025024,443.080841 669.025024,445.237976 
	C645.011719,445.237976 621.767212,445.237976 598.537598,445.237976 
	C598.537598,457.372925 598.537598,469.088623 598.537598,480.735107 
	C633.855591,480.735107 668.771240,480.735107 703.798523,480.735107 
	C703.908142,479.787872 704.047119,479.146790 704.047241,478.505737 
	C704.060669,405.855011 704.083618,333.204224 703.949646,260.553741 
	C703.946411,258.796448 702.634644,256.434479 701.186584,255.374161 
	C634.263367,206.369400 567.244385,157.495438 500.305756,108.511658 
	C497.612274,106.540627 495.935089,106.762367 493.427246,108.712601 
	C482.908936,116.892227 472.240631,124.880081 461.583710,132.880173 
	C446.410858,144.270325 431.199799,155.609558 415.623993,166.427399 
	C388.877014,146.887482 362.101959,127.385674 335.427094,107.747787 
	C332.802216,105.815353 331.102264,105.776825 328.487366,107.782677 
	C309.999573,121.964325 291.379700,135.973755 272.802063,150.038254 
	C227.020828,184.697708 181.252457,219.374191 135.425552,253.973145 
	C132.773804,255.975189 131.765640,258.136597 131.770111,261.483795 
	C131.865112,332.461456 131.881943,403.439301 131.746475,474.416840 
	C131.738052,478.834717 132.946442,480.027222 137.347717,480.003937 
	C171.169510,479.825012 204.992691,479.909607 238.815430,479.892853 
	C240.421753,479.892059 242.027985,479.706848 244.111771,479.578003 
	C244.111771,469.163788 243.873077,459.190796 244.218567,449.238098 
	C244.376938,444.675964 242.793716,443.691071 238.520401,443.727875 
	C215.862503,443.923004 193.201462,443.735260 170.543030,443.896057 
	C166.424637,443.925232 165.091904,442.660522 165.100906,438.493835 
	C165.215668,385.344055 165.135910,332.193787 165.318466,279.044403 
	C165.326111,276.816376 166.836548,273.841797 168.615341,272.480896 
	C220.561340,232.738571 272.666901,193.204803 324.604248,153.451248 
	C328.333435,150.596878 330.640137,151.002151 334.121063,153.527222 
	C351.090790,165.837067 368.242889,177.895493 385.032410,190.676895 
	C356.924774,212.033417 328.858215,233.444473 300.650055,254.667404 
	C297.617798,256.948761 296.617828,259.276123 296.623260,262.960541 
	C296.726990,333.591980 296.699921,404.223602 296.699921,474.855194 
	C296.699921,476.635284 296.699951,478.415405 296.699951,480.362671 
	C334.504486,480.362671 371.690125,480.362671 408.861786,480.362671 
	C408.861786,468.231628 408.861786,456.506744 408.861786,444.091675 
	C382.613647,444.091675 356.748962,444.091675 330.922577,444.091675 
	C330.770752,442.741180 330.631897,442.081696 330.631714,441.422150 
	C330.617096,387.282410 330.581909,333.142548 330.738617,279.003265 
	C330.744110,277.097473 332.222046,274.659393 333.768951,273.388977 
	C339.941925,268.319305 346.405182,263.602142 352.776886,258.775452 
	C373.478790,243.093292 394.187714,227.420380 415.525177,212.079010 
	C443.708099,232.202164 471.851654,252.381058 500.131927,272.366486 
	C503.119659,274.477905 504.075592,276.673004 504.069336,280.172729 
	C503.975250,332.833069 504.004150,385.493622 504.004181,438.154144 
	C504.004181,439.930725 504.004150,441.707306 504.004150,444.063660 
	C480.121948,444.063660 456.893494,444.063660 433.532776,444.063660 
	C433.532776,456.343018 433.532776,468.029480 433.532776,479.605560 
	C468.886963,479.605560 503.776001,479.605560 538.748901,479.605560 
	C538.863586,478.177002 539.011780,477.192413 539.011902,476.207794 
	C539.023193,404.216217 539.049072,332.224548 538.888367,260.233337 
	C538.883789,258.200836 537.391846,255.481705 535.728943,254.247742 
	C515.140686,238.969589 494.421600,223.866852 473.670380,208.809647 
	C464.394501,202.079025 454.970856,195.552032 445.858063,188.273193 
M614.500000,608.217102 
	C451.788055,608.217102 289.076141,608.217102 126.324615,608.217102 
	C126.324615,619.866882 126.324615,630.787048 126.324615,641.796997 
	C317.943848,641.796997 509.265442,641.796997 700.653564,641.796997 
	C700.653564,630.528625 700.653564,619.622498 700.653564,608.217224 
	C672.066650,608.217224 643.783325,608.217224 614.500000,608.217102 
M137.551163,527.754089 
	C325.817261,527.754089 514.083374,527.754089 702.562134,527.754089 
	C702.562134,516.188538 702.562134,505.281433 702.562134,494.221954 
	C510.924652,494.221954 319.574066,494.221954 128.302689,494.221954 
	C128.302689,505.535980 128.302689,516.440918 128.302689,527.753845 
	C131.291138,527.753845 133.930450,527.753845 137.551163,527.754089 
M624.809082,550.202942 
	C626.548462,549.655579 628.287842,549.108154 630.027283,548.560791 
	C629.881470,548.082336 629.735718,547.603882 629.589905,547.125427 
	C620.492432,547.125427 611.394897,547.125427 602.297424,547.125427 
	C602.176758,547.564880 602.056152,548.004395 601.935547,548.443848 
	C603.396790,549.057678 604.902283,549.585022 606.308655,550.305908 
	C608.339905,551.347046 611.233398,552.438293 608.970886,555.338013 
	C601.992371,564.281921 594.755249,573.024109 586.788452,582.870605 
	C586.788452,572.305176 586.620728,563.179749 586.964111,554.073669 
	C587.017334,552.662415 589.315491,551.227539 590.752747,550.013489 
	C591.764343,549.158997 593.076233,548.659973 594.253967,548.002258 
	C594.026367,547.724976 593.798706,547.447754 593.571045,547.170532 
	C584.601929,547.170532 575.632751,547.170532 566.663635,547.170532 
	C566.298950,547.727539 565.934265,548.284546 565.569519,548.841553 
	C566.470093,549.181824 567.355225,549.763855 568.273743,549.822449 
	C573.427856,550.151428 574.171204,553.294373 574.067871,557.713501 
	C573.830200,567.867493 573.903076,578.031982 574.041748,588.189636 
	C574.089478,591.679993 573.382446,594.044067 569.335205,594.275818 
	C568.312500,594.334473 567.337585,595.227356 566.340698,595.736816 
	C566.461792,596.128479 566.582886,596.520203 566.704041,596.911865 
	C575.776245,596.911865 584.848450,596.911865 593.920715,596.911865 
	C594.052917,596.523743 594.185059,596.135620 594.317261,595.747559 
	C593.063416,595.166992 591.857300,594.426575 590.546997,594.034790 
	C585.977600,592.668945 585.234131,590.680481 588.213806,586.886047 
	C592.219849,581.784607 596.348999,576.779419 600.443848,571.747986 
	C603.187317,568.377136 605.962891,565.032471 609.625305,560.580627 
	C609.625305,570.685303 609.520386,579.169067 609.672668,587.648254 
	C609.741577,591.483154 609.054749,594.236206 604.447571,594.343262 
	C603.608459,594.362671 602.792175,595.363159 600.732483,596.727295 
	C611.447388,596.727295 620.584534,596.727295 629.721680,596.727295 
	C629.203430,595.259888 628.491516,594.371399 627.719360,594.315491 
	C622.872498,593.964417 621.949585,591.148621 622.053772,586.818054 
	C622.302002,576.497986 622.043091,566.166260 622.221436,555.843323 
	C622.251953,554.081177 623.433777,552.338928 624.809082,550.202942 
M651.213684,573.499084 
	C651.213623,578.163452 651.048523,582.835449 651.262695,587.489990 
	C651.454529,591.657349 650.341309,594.295715 645.605713,594.314758 
	C644.731873,594.318237 643.861755,595.247009 642.989990,595.748779 
	C643.080078,596.103088 643.170227,596.457458 643.260376,596.811768 
	C652.484131,596.811768 661.707947,596.811768 670.931702,596.811768 
	C670.419189,595.292480 669.472412,594.250793 668.376160,594.057617 
	C664.858398,593.437622 663.783813,591.426636 663.964417,588.061340 
	C664.169495,584.240967 663.962891,580.399963 664.042664,576.570251 
	C664.065735,575.464111 664.323120,573.459900 664.703491,573.402893 
	C668.885376,572.775635 673.296448,571.580627 677.250549,572.413635 
	C679.230408,572.830811 681.001709,576.928101 681.767151,579.668274 
	C682.545349,582.454041 681.851746,585.624329 682.020630,588.613953 
	C682.199341,591.775757 681.167908,593.662476 677.790344,594.179321 
	C676.700867,594.346130 675.767029,595.530701 673.721313,596.994141 
	C684.286560,596.994141 693.152771,596.994141 702.546875,596.994141 
	C701.913391,595.804810 701.611267,594.599976 701.200745,594.561829 
	C694.247803,593.915466 694.447449,589.043884 694.767456,584.007385 
	C694.883423,582.182373 694.847839,580.341187 694.773376,578.511719 
	C694.455688,570.703003 690.595276,565.989197 682.878235,566.025818 
	C676.646729,566.055298 670.423401,567.820374 664.308838,568.797546 
	C664.308838,563.043640 664.308838,556.327576 664.308838,550.000366 
	C675.061890,546.288086 676.344849,556.885376 681.184814,562.081787 
	C681.472778,561.721497 681.760681,561.361145 682.048584,561.000793 
	C682.048584,556.292175 682.048584,551.583496 682.048584,546.932983 
	C665.625488,546.932983 649.537720,546.932983 633.712524,546.932983 
	C633.712524,551.933105 633.712524,556.605103 633.712524,562.801392 
	C639.483276,557.088379 640.330322,546.323853 651.213684,550.167480 
	C651.213684,557.550354 651.213684,565.024841 651.213684,573.499084 
M538.188110,546.627625 
	C528.877197,546.627625 519.566284,546.627625 510.255402,546.627625 
	C510.164490,547.154846 510.073578,547.682129 509.982666,548.209351 
	C510.815063,548.796936 511.612640,549.829407 512.485657,549.897644 
	C517.107605,550.259338 518.016663,552.953125 517.934387,557.058472 
	C517.731201,567.199951 517.761780,577.349915 517.921753,587.492981 
	C517.982666,591.355774 517.226440,594.022827 512.717102,594.266052 
	C511.772644,594.316956 510.879120,595.313171 508.789368,596.590759 
	C511.118042,597.060669 511.882446,597.349915 512.646301,597.348633 
	C522.290833,597.332031 531.939331,597.417114 541.577698,597.149109 
	C545.010071,597.053711 548.534058,596.446716 551.811646,595.420105 
	C557.754700,593.558594 560.551880,589.743103 560.770996,584.225891 
	C560.973938,579.117249 557.947266,574.701538 552.425415,572.447021 
	C550.063904,571.482727 547.538635,570.919373 544.273315,569.926147 
	C547.059448,568.834656 549.018005,568.127258 550.928223,567.307129 
	C555.451599,565.364929 558.368347,562.149902 557.948730,556.982239 
	C557.532776,551.861084 554.310974,548.887512 549.444824,547.903992 
	C546.054382,547.218872 542.562622,547.035400 538.188110,546.627625 
M391.410034,547.952515 
	C389.837250,547.434204 388.299316,546.729980 386.686066,546.427856 
	C376.185608,544.461304 366.310760,545.627869 358.588562,553.749329 
	C351.353790,561.358215 349.681366,570.635864 352.619598,580.577454 
	C356.027039,592.106750 366.934753,598.894897 380.564667,598.372192 
	C393.346802,597.881897 403.121338,590.469299 405.920654,579.143250 
	C409.210388,565.833069 404.430084,555.107056 391.410034,547.952515 
M139.536636,546.624023 
	C135.658142,546.624023 131.779648,546.624023 127.901154,546.624023 
	C127.774223,547.168213 127.647301,547.712463 127.520370,548.256653 
	C128.609726,548.853394 129.636139,549.732178 130.800674,549.992126 
	C133.858231,550.674561 135.291641,552.256836 135.259140,555.528687 
	C135.148300,566.686951 135.169846,577.847351 135.247009,589.006226 
	C135.269394,592.241882 134.055771,593.951904 130.693497,594.233887 
	C129.625565,594.323425 128.634186,595.325806 127.607773,595.910461 
	C140.291641,596.831787 152.513733,596.851379 164.735474,596.793579 
	C165.688446,596.789062 166.653763,596.283020 167.588074,595.940979 
	C174.171997,593.530945 178.216507,587.980164 178.007553,581.673279 
	C177.798889,575.375427 173.992447,570.545898 166.661423,569.019958 
	C160.727615,567.784729 154.545578,567.741882 148.373138,567.160706 
	C148.373138,561.596130 148.373138,555.565063 148.373138,548.906921 
	C153.720428,549.440613 159.324722,548.653137 163.377991,550.797424 
	C167.150604,552.793274 169.271469,557.911316 172.119507,561.654846 
	C172.425262,561.486450 172.731033,561.318054 173.036789,561.149719 
	C173.036789,556.450806 173.036789,551.751953 173.036789,546.624084 
	C162.097122,546.624084 151.310608,546.624084 139.536636,546.624023 
M198.017212,580.301575 
	C196.728561,583.263306 195.439911,586.225037 194.050934,589.417297 
	C192.341690,587.938660 191.314774,586.315125 190.064728,586.119812 
	C187.349609,585.695679 183.863617,585.015991 181.934799,586.302673 
	C180.226349,587.442383 179.100403,591.434631 179.744308,593.550720 
	C180.357391,595.565552 183.412964,597.716492 185.711563,598.158081 
	C190.667877,599.110168 194.141800,595.859619 196.902649,592.115906 
	C202.376038,584.694214 204.560318,576.000488 206.023224,567.123962 
	C206.931183,561.614807 207.353546,556.025635 207.969437,550.684204 
	C212.257614,550.684204 215.993820,550.684204 219.986374,550.684204 
	C219.986374,563.948730 220.103210,576.915405 219.821671,589.873291 
	C219.790482,591.309021 217.630783,592.874695 216.186157,594.043884 
	C215.154907,594.878601 213.667831,595.150146 212.384140,595.672974 
	C212.499756,596.094666 212.615372,596.516418 212.730972,596.938110 
	C221.822052,596.938110 230.913132,596.938110 240.004211,596.938110 
	C240.143127,596.551025 240.282043,596.163940 240.420959,595.776855 
	C239.202881,595.179688 237.770340,594.814575 236.815964,593.932190 
	C235.307404,592.537537 233.019608,590.827942 232.972351,589.196289 
	C232.640076,577.723083 232.817062,566.235718 232.783646,554.752991 
	C232.775681,552.012451 233.860092,550.429565 236.690521,549.927429 
	C237.990540,549.696838 239.176086,548.820801 240.413528,548.237366 
	C240.280121,547.856628 240.146729,547.475830 240.013321,547.095093 
	C224.770248,547.095093 209.527176,547.095093 192.727417,547.095093 
	C194.713577,548.651245 195.483414,549.774719 196.295105,549.805847 
	C201.572021,550.007935 202.805954,553.307678 202.157379,557.610535 
	C201.050613,564.953125 199.591858,572.242737 198.017212,580.301575 
M497.898285,590.489441 
	C494.474731,594.362122 483.143860,596.359314 479.029236,593.620300 
	C478.073608,592.984192 477.159668,591.511902 477.124451,590.395996 
	C476.937378,584.475281 477.036499,578.545532 477.036499,571.748047 
	C480.923462,572.528809 484.749359,572.417603 487.458405,574.102234 
	C489.904877,575.623596 491.130157,579.108826 492.893951,581.728027 
	C493.233368,581.525452 493.572754,581.322937 493.912140,581.120361 
	C493.912140,574.373413 493.912140,567.626465 493.912140,560.879456 
	C493.553192,560.297791 493.194244,559.716187 492.835297,559.134521 
	C490.019135,567.361572 485.220795,571.529846 477.066467,569.062195 
	C477.066467,562.542419 477.066467,556.123840 477.066467,549.024658 
	C482.149170,549.453369 487.370148,548.774170 491.515656,550.573242 
	C495.304474,552.217468 497.929565,556.543335 501.669952,560.291077 
	C501.669952,554.936401 501.669952,550.894470 501.669952,547.043823 
	C486.471313,547.043823 471.616058,547.043823 456.760834,547.043823 
	C456.623840,547.457092 456.486877,547.870361 456.349884,548.283630 
	C457.561279,548.892517 458.979797,549.277344 459.936493,550.161682 
	C461.450104,551.560974 463.763611,553.262512 463.811310,554.892517 
	C464.146912,566.367615 464.140228,577.861450 463.816498,589.337219 
	C463.771088,590.948486 461.548584,592.656128 460.054901,594.011841 
	C459.100677,594.877930 457.633331,595.178650 456.396057,595.732849 
	C456.524811,596.145874 456.653564,596.558899 456.782318,596.971924 
	C472.620758,596.971924 488.459198,596.971924 504.790833,596.971924 
	C504.790833,591.812805 504.790833,586.746094 504.790833,581.679443 
	C504.410889,581.552124 504.030945,581.424744 503.651001,581.297424 
	C501.875244,584.153137 500.099518,587.008911 497.898285,590.489441 
M446.903992,550.411804 
	C448.559235,549.353149 452.344696,551.009460 451.749542,547.006348 
	C442.617889,547.006348 433.718994,547.006348 424.820068,547.006348 
	C425.190643,548.694275 426.001923,549.740479 426.923553,549.848938 
	C431.191620,550.351318 432.182739,552.770630 432.072540,556.736145 
	C431.827393,565.558044 432.137390,574.395264 431.906952,583.217957 
	C431.840363,585.766846 431.181488,588.551575 429.956543,590.764526 
	C427.677795,594.881287 422.948486,595.454407 418.784027,592.062256 
	C419.894440,591.211304 421.502960,590.608521 421.885315,589.559021 
	C422.778961,587.106140 424.335846,583.597961 423.310394,582.071289 
	C422.030548,580.165955 418.238434,578.729065 415.885620,579.136719 
	C413.888641,579.482605 411.447662,582.492920 410.868958,584.751099 
	C409.508575,590.059570 412.277191,594.543152 417.253204,596.875732 
	C430.255005,602.970886 444.722076,594.169678 444.977753,579.913635 
	C445.121094,571.920410 444.937836,563.921448 445.056915,555.927368 
	C445.082184,554.232300 445.782379,552.547302 446.903992,550.411804 
M502.065155,691.134399 
	C506.341431,691.134399 510.617706,691.134399 514.893982,691.134399 
	C515.100342,690.699219 515.306702,690.263977 515.513062,689.828796 
	C509.871429,688.962341 509.624756,685.641357 510.843109,681.573425 
	C519.767883,683.020813 524.398987,680.903687 526.409424,674.192444 
	C527.816833,669.494324 527.275696,664.890137 523.836914,661.165894 
	C520.388733,657.431458 516.343262,657.462097 512.145020,660.074341 
	C511.761139,660.313232 510.911713,660.322510 510.586945,660.058716 
	C506.750732,656.941711 503.134277,659.464539 500.638550,659.492065 
	C501.543121,662.635742 502.743866,665.124939 502.893494,667.675781 
	C503.214111,673.141724 503.006989,678.639587 502.984283,684.124207 
	C502.975098,686.342346 503.732697,689.045715 500.084991,689.209717 
	C500.456665,689.849548 500.828339,690.489380 502.065155,691.134399 
M250.346054,681.161316 
	C258.055481,681.161438 258.055481,681.161438 265.076721,688.378174 
	C265.076721,685.301819 265.920563,680.615845 264.939972,680.196533 
	C258.507660,677.446106 262.037506,672.231628 261.598450,668.271057 
	C261.296143,665.544067 262.740692,662.623413 263.429626,659.682007 
	C260.234650,659.682007 256.016113,659.682007 251.391891,659.682007 
	C254.458191,663.312988 255.213623,672.034424 253.101868,680.165466 
	C250.789093,679.027161 246.739273,677.938110 246.749542,676.888672 
	C246.806229,671.093689 244.336456,664.857788 249.167908,659.563965 
	C244.473145,659.563965 240.290756,659.563965 235.734451,659.563965 
	C240.490402,664.112610 240.515778,675.991699 235.645508,681.161316 
	C240.569031,681.161316 244.978333,681.161316 250.346054,681.161316 
M279.982422,659.618469 
	C275.695221,659.618469 271.408051,659.618469 266.435364,659.618469 
	C272.142334,663.949280 272.172607,676.069702 266.818115,680.814514 
	C271.499084,680.814514 275.801636,680.814514 280.294800,680.814514 
	C277.199646,676.934082 278.652405,673.709656 286.539520,667.565247 
	C285.845825,672.555908 285.262848,676.749817 284.715881,680.684814 
	C287.960480,680.684814 292.248535,680.684814 297.146118,680.684814 
	C291.964508,676.851501 291.954865,663.814514 296.952423,659.699097 
	C292.130096,659.699097 287.764954,659.699097 282.863739,659.699097 
	C286.839050,663.356689 284.939331,667.588745 276.746155,671.942993 
	C277.914886,668.075500 279.083618,664.207947 279.982422,659.618469 
M627.778381,679.800659 
	C632.084778,680.394714 636.391113,680.988770 640.697510,681.582825 
	C636.553101,676.999756 636.498596,664.914185 640.749756,659.634888 
	C636.407043,659.634888 632.112976,659.634888 627.307800,659.634888 
	C628.640564,661.171631 629.539062,662.207764 630.554565,663.378662 
	C627.806824,666.678711 625.244507,669.756104 622.682129,672.833496 
	C622.304932,672.670654 621.927734,672.507812 621.550476,672.344971 
	C622.151367,668.099915 622.752258,663.854858 623.349487,659.635620 
	C620.068237,659.635620 615.763916,659.635620 610.895813,659.635620 
	C616.364197,663.936035 616.392822,676.258728 611.321838,680.629150 
	C615.880615,680.629150 620.243958,680.629150 625.201721,680.629150 
	C621.170959,677.188477 622.595886,674.016113 631.009888,668.578552 
	C630.086975,672.098450 629.164124,675.618408 627.778381,679.800659 
M596.532471,661.357605 
	C597.247070,663.447571 597.961670,665.537537 598.759338,667.870483 
	C595.170959,667.870483 592.760193,667.870483 589.261108,667.870483 
	C590.545288,664.598999 591.566650,661.997131 592.453247,659.738525 
	C588.312622,659.738525 584.015686,659.738525 579.039795,659.738525 
	C584.398132,663.643677 584.456604,676.512634 579.523010,680.672485 
	C584.199646,680.672485 588.517212,680.672485 591.843445,680.672485 
	C591.084595,677.224182 590.382385,674.033081 589.583740,670.403931 
	C593.005310,670.403931 595.401855,670.403931 598.867493,670.403931 
	C597.930847,674.218323 597.112427,677.551208 596.315613,680.796143 
	C599.864563,680.796143 604.196167,680.796143 608.527832,680.796143 
	C603.651855,678.147644 605.419189,673.729919 605.507324,670.098572 
	C605.592957,666.575500 606.559509,663.073853 607.196045,659.218750 
	C604.577026,659.218750 600.791382,659.164001 597.012207,659.295715 
	C596.591797,659.310364 596.208435,660.386902 596.532471,661.357605 
M425.250397,667.469116 
	C425.821411,664.881042 426.392426,662.292969 426.945221,659.787354 
	C423.427795,659.787354 419.109894,659.787354 413.989288,659.787354 
	C419.384857,663.570923 419.417023,676.334900 414.706757,680.630005 
	C419.219208,680.630005 423.542480,680.630005 426.837830,680.630005 
	C426.080444,677.157043 425.387085,673.977783 424.612854,670.427551 
	C428.068115,670.427551 430.463867,670.427551 433.915344,670.427551 
	C432.933044,674.271545 432.080505,677.607727 431.273376,680.766235 
	C434.870575,680.766235 439.200134,680.766235 443.529663,680.766235 
	C438.652008,678.089722 440.424286,673.668518 440.511505,670.046143 
	C440.596191,666.527283 441.594788,663.030396 442.164185,659.687622 
	C439.015350,659.687622 434.716797,659.687622 431.117554,659.687622 
	C432.034119,662.431152 432.874939,664.947998 433.903015,668.025330 
	C430.523071,668.025330 428.240479,668.025330 425.250397,667.469116 
M215.730560,670.220154 
	C218.004303,670.220154 220.278046,670.220154 223.681213,670.220154 
	C222.571899,674.329224 221.676620,677.645386 220.730728,681.149109 
	C223.658157,681.149109 227.133102,681.165833 230.607681,681.135986 
	C231.360687,681.129578 232.112274,680.956238 231.528229,681.031128 
	C230.986862,677.100769 230.099182,673.591064 230.134323,670.090759 
	C230.169876,666.550842 231.119232,663.020142 231.661606,659.528320 
	C228.517212,659.528320 224.325775,659.528320 220.652710,659.528320 
	C221.568283,662.258484 222.446503,664.877258 223.466995,667.920288 
	C219.864380,667.920288 217.444778,667.920288 214.106461,667.920288 
	C215.076355,664.807861 215.885040,662.212830 216.690414,659.628357 
	C212.727325,659.628357 208.448639,659.628357 203.656281,659.628357 
	C209.153198,664.119141 209.164948,676.271240 203.903870,680.650146 
	C208.538483,680.650146 212.868149,680.650146 215.849213,680.650146 
	C215.554840,677.076355 215.296021,673.934387 215.730560,670.220154 
M653.841614,659.206604 
	C650.352356,659.206604 646.863098,659.206604 643.373840,659.206604 
	C648.339294,663.637939 648.417175,675.547363 643.446655,680.768982 
	C647.861877,680.768982 652.172668,680.768982 655.394165,680.768982 
	C654.799377,677.215942 654.236816,673.855774 653.650574,670.353882 
	C657.006409,670.353882 659.281494,670.353882 662.602173,670.353882 
	C661.753479,674.080139 661.002136,677.378784 660.264709,680.616150 
	C663.541992,680.616150 667.854797,680.616150 672.167664,680.616150 
	C667.045288,678.026978 669.472473,673.617126 669.229614,670.178894 
	C668.968933,666.488892 667.912415,662.357788 673.161682,659.644531 
	C667.699158,659.644531 663.425781,659.644531 659.826233,659.644531 
	C660.742554,662.424255 661.600220,665.026123 662.549194,667.904846 
	C658.991150,667.904846 656.578369,667.904846 653.014160,667.904846 
	C654.214661,665.183777 655.221191,663.167358 655.938171,661.052734 
	C656.081177,660.630981 655.117371,659.833984 653.841614,659.206604 
M487.981598,662.613464 
	C486.803833,665.239746 487.304321,669.424927 481.240082,669.005676 
	C482.438629,665.313782 483.406891,662.331238 484.242645,659.756836 
	C480.317169,659.756836 476.026581,659.756836 471.037231,659.756836 
	C476.385773,663.604919 476.438751,676.413513 471.690308,680.617188 
	C476.222321,680.617188 480.544037,680.617188 483.979340,680.617188 
	C483.157623,677.502563 482.409790,674.668091 481.405396,670.860901 
	C483.613281,671.574097 484.992340,671.598145 485.319672,672.197021 
	C486.870636,675.034546 488.134552,678.028992 489.348907,680.640991 
	C492.646454,680.640991 495.762756,680.640991 498.812042,680.640991 
	C495.224152,676.213989 491.877777,672.085022 488.362762,667.747986 
	C488.871704,666.651672 489.556122,665.177429 490.309265,663.555054 
	C491.096680,663.949341 491.678619,664.501038 492.217438,664.461731 
	C493.848846,664.342773 495.714478,664.381531 496.973663,663.564697 
	C497.559357,663.184692 497.465790,660.211426 496.780701,659.750366 
	C495.469391,658.867981 493.380188,658.400757 491.867035,658.777771 
	C490.491669,659.120544 489.452393,660.812256 487.981598,662.613464 
M132.842331,671.299133 
	C131.972931,673.617310 130.345734,675.991943 130.512726,678.232910 
	C130.616165,679.620911 133.858292,682.187744 134.981964,681.851868 
	C141.123474,680.015930 147.103760,682.231201 153.121384,681.827698 
	C153.481644,681.803528 153.807663,681.269104 153.206406,681.791321 
	C152.322342,679.291016 151.278946,677.479309 151.101669,675.586548 
	C150.793045,672.291321 151.494308,668.851868 150.860687,665.653442 
	C150.403687,663.346497 148.697144,659.714783 147.148422,659.495544 
	C142.751068,658.872925 138.116745,659.476196 133.651901,660.122925 
	C132.656616,660.267090 131.973541,662.566833 131.146729,663.874084 
	C132.470215,664.627869 133.902847,666.109680 135.086700,665.932129 
	C136.287689,665.752136 137.330887,664.002686 138.271255,662.805542 
	C138.788345,662.147278 138.822357,660.627258 139.300766,660.521545 
	C140.293198,660.302307 141.676941,660.436035 142.473389,661.013184 
	C144.895096,662.768188 144.230698,667.001282 141.442459,668.090088 
	C138.830460,669.109985 136.164291,669.991272 132.842331,671.299133 
M392.532257,681.191345 
	C395.314117,681.533508 398.095947,681.875732 400.424347,682.162170 
	C399.440491,679.217468 398.352234,677.127136 398.105103,674.941650 
	C397.752777,671.825500 398.514587,668.530945 397.856567,665.518799 
	C397.355377,663.224243 395.631866,659.689270 394.023407,659.436707 
	C389.801544,658.773804 385.302612,659.335632 381.011353,660.019714 
	C379.888367,660.198853 379.120392,662.605225 378.189392,663.988708 
	C379.538422,664.704285 381.016296,666.142822 382.200226,665.931824 
	C383.381317,665.721313 384.334351,663.908630 385.257355,662.699097 
	C385.770111,662.027161 385.910339,660.581909 386.406403,660.489075 
	C387.405975,660.301941 388.784271,660.477112 389.562164,661.077942 
	C391.903198,662.885803 391.124237,667.049194 388.343750,668.130981 
	C385.578522,669.206787 382.315186,669.626221 380.142731,671.401306 
	C378.452515,672.782288 377.075439,676.007263 377.477295,678.031982 
	C377.806671,679.691589 380.806702,681.432678 382.912445,681.943237 
	C384.743347,682.387085 386.967743,681.097107 389.042206,680.697815 
	C389.965088,680.520203 390.946899,680.648743 392.532257,681.191345 
M316.153931,672.877014 
	C314.479950,675.599304 314.240021,678.406982 316.839111,680.518799 
	C320.882874,683.804321 324.880615,682.032532 327.065582,680.703613 
	C332.001129,681.341431 335.428497,681.784302 338.324554,682.158508 
	C337.329559,679.190918 336.293427,677.267395 336.100983,675.262817 
	C335.784760,671.968994 336.461792,668.539001 335.859650,665.327698 
	C335.454559,663.167236 333.736176,659.720642 332.311157,659.566284 
	C327.730408,659.070312 322.984802,659.636719 318.373383,660.291016 
	C317.502472,660.414612 316.955750,662.822937 316.259430,664.176941 
	C317.652893,664.826172 319.109741,666.074829 320.419922,665.936279 
	C321.483032,665.823975 323.225037,664.007080 323.180328,663.013000 
	C323.024750,659.553833 325.088989,659.651184 326.881805,660.708130 
	C327.974609,661.352417 328.675568,663.415344 328.704834,664.858276 
	C328.726196,665.909729 327.597229,667.446411 326.573334,667.971313 
	C323.370911,669.612976 319.975128,670.877380 316.153931,672.877014 
M459.540253,669.152161 
	C462.649048,669.152161 465.757843,669.152161 468.881195,669.152161 
	C468.559265,661.795898 465.841705,658.782104 459.473450,658.231079 
	C452.803131,657.653931 447.589539,661.775208 446.466461,668.513123 
	C445.468018,674.503052 448.790405,679.991760 454.431122,681.671387 
	C460.694458,683.536316 466.643463,681.238403 468.766205,676.134155 
	C457.332581,679.343933 454.619995,678.064758 454.686188,669.152222 
	C455.979187,669.152222 457.276154,669.152222 459.540253,669.152161 
M691.632751,681.632446 
	C693.818909,680.108459 696.005127,678.584534 698.191345,677.060608 
	C686.330200,679.371277 683.249451,677.916809 683.382690,668.967651 
	C688.130920,668.967651 692.889709,668.967651 697.674988,668.967651 
	C697.017212,661.645813 694.653015,658.980408 688.534302,658.266235 
	C682.912781,657.610168 677.800659,660.671387 675.893494,665.835999 
	C672.247375,675.709961 678.821716,682.777954 691.632751,681.632446 
M529.928345,668.791382 
	C530.000916,676.324036 532.501221,680.235657 538.229675,681.778564 
	C544.295532,683.412354 549.344727,681.459595 552.532471,676.323547 
	C549.349426,676.865051 545.969849,678.238892 542.864746,677.775146 
	C538.539307,677.129150 537.700195,673.386780 538.161621,669.032227 
	C542.927612,669.032227 547.520569,669.032227 552.092651,669.032227 
	C552.142822,662.128662 549.647949,659.113708 543.517273,658.288513 
	C537.200317,657.438354 532.436768,660.840881 529.928345,668.791382 
M179.826950,675.284058 
	C181.918045,680.512146 186.145645,682.155090 191.352722,682.145386 
	C195.899750,682.136902 199.469421,680.478027 201.866211,676.049011 
	C189.180496,678.789490 186.412003,677.440735 187.564575,668.947144 
	C192.087326,668.947144 196.667953,668.947144 201.250046,668.947144 
	C200.979767,662.144592 199.208481,660.002808 193.789963,658.599243 
	C185.455597,656.440308 176.143280,663.778503 179.826950,675.284058 
M361.786499,668.185547 
	C361.134125,668.458679 360.481750,668.731812 359.829346,669.004944 
	C364.108673,669.890869 367.055084,671.560059 365.755646,676.379333 
	C364.782898,679.986938 362.172089,680.819458 359.389496,679.246338 
	C358.640289,676.996948 357.524872,675.048645 356.059967,673.413513 
	C355.907471,673.243225 353.682831,674.929321 352.419617,675.754150 
	C353.879333,677.641174 354.997742,680.555420 356.876984,681.179810 
	C359.863953,682.172302 363.625366,682.460632 366.561554,681.509888 
	C369.353180,680.605957 372.600861,678.140259 373.557953,675.579956 
	C374.201324,673.858948 371.206390,670.777893 369.848419,668.321838 
	C370.589844,666.989014 373.263458,663.802612 372.657684,662.952148 
	C371.153625,660.840637 368.261261,658.835083 365.727661,658.549133 
	C362.038879,658.132935 358.175598,659.263062 354.638184,659.702698 
	C354.638184,662.332703 354.638184,664.657227 354.638184,668.290894 
	C356.203369,665.779114 356.802948,664.163269 357.941315,663.157227 
	C359.329956,661.930115 361.093811,660.931946 362.863190,660.447632 
	C363.410675,660.297852 365.348114,662.344055 365.185364,663.044922 
	C364.768005,664.842224 363.528992,666.448669 361.786499,668.185547 
M302.599762,669.604248 
	C302.482605,675.886475 302.365417,682.168701 302.248230,688.450989 
	C301.748413,688.453369 301.248596,688.455750 300.748779,688.458130 
	C300.392548,687.930237 300.154297,687.158630 299.658722,686.918640 
	C297.948914,686.090820 296.185211,685.271973 294.350677,684.898376 
	C294.021118,684.831238 292.571777,687.626709 292.808533,687.847717 
	C294.206665,689.152344 295.874146,690.836243 297.591248,691.010498 
	C303.679596,691.628418 308.701233,687.848816 309.282654,681.361938 
	C309.958221,673.824585 309.440155,666.180237 309.440155,658.290405 
	C305.509155,658.709717 301.889343,659.095825 298.269562,659.481934 
	C302.611023,661.636658 302.958496,664.961304 302.599762,669.604248 
M553.970642,664.216187 
	C554.156738,665.179382 554.342773,666.142578 554.529968,667.111633 
	C556.905518,664.718262 558.973633,662.634583 561.041809,660.550903 
	C561.562073,660.920837 562.082336,661.290771 562.602600,661.660706 
	C561.275757,667.920166 565.640930,675.028137 558.849243,680.753723 
	C563.762268,680.753723 568.321716,680.753723 573.392456,680.753723 
	C569.546387,677.721497 568.630432,670.759277 570.637451,660.032166 
	C573.279785,662.669922 575.381897,664.768311 577.663940,667.046387 
	C577.663940,664.343811 577.663940,661.881958 577.663940,659.367310 
	C569.708496,659.367310 562.119507,659.367310 554.202271,659.367310 
	C554.118958,660.793274 554.044739,662.063721 553.970642,664.216187 
M175.319809,666.549316 
	C176.066208,664.323853 176.812592,662.098450 177.649780,659.602295 
	C169.824738,659.602295 163.164673,659.602295 156.042847,659.602295 
	C161.287781,663.999939 161.312332,675.181213 156.527237,680.813049 
	C161.088684,680.813049 165.606949,680.813049 170.213455,680.813049 
	C164.126251,674.868164 168.403244,667.776733 166.864883,661.482727 
	C172.204285,661.142029 172.204285,661.142029 175.319809,666.549316 
M303.242676,653.608826 
	C305.337067,652.964844 307.431458,652.320862 309.525818,651.676819 
	C308.978333,650.120361 308.861359,647.891724 307.766266,647.190369 
	C306.595825,646.440796 303.367615,646.600220 303.039459,647.300659 
	C302.263367,648.957092 302.674408,651.169739 303.242676,653.608826 
z"/>
<path fill="#B69378" opacity="1.000000" stroke="none" 
	d="
M416.005096,166.970581 
	C431.199799,155.609558 446.410858,144.270325 461.583710,132.880173 
	C472.240631,124.880081 482.908936,116.892227 493.427246,108.712601 
	C495.935089,106.762367 497.612274,106.540627 500.305756,108.511658 
	C567.244385,157.495438 634.263367,206.369400 701.186584,255.374161 
	C702.634644,256.434479 703.946411,258.796448 703.949646,260.553741 
	C704.083618,333.204224 704.060669,405.855011 704.047241,478.505737 
	C704.047119,479.146790 703.908142,479.787872 703.798523,480.735107 
	C668.771240,480.735107 633.855591,480.735107 598.537598,480.735107 
	C598.537598,469.088623 598.537598,457.372925 598.537598,445.237976 
	C621.767212,445.237976 645.011719,445.237976 669.025024,445.237976 
	C669.025024,443.080841 669.025085,441.329498 669.025085,439.578186 
	C669.025024,386.756409 668.989868,333.934570 669.103760,281.113037 
	C669.111450,277.583405 668.125854,275.431519 665.192505,273.339630 
	C609.730835,233.787369 554.321777,194.160934 499.034851,154.364975 
	C495.173950,151.585861 492.893951,151.762405 489.280853,154.642578 
	C474.966461,166.053345 460.357727,177.094849 445.411987,188.623840 
	C434.941925,196.564285 424.917938,204.154099 414.893951,211.743927 
	C394.187714,227.420380 373.478790,243.093292 352.776886,258.775452 
	C346.405182,263.602142 339.941925,268.319305 333.768951,273.388977 
	C332.222046,274.659393 330.744110,277.097473 330.738617,279.003265 
	C330.581909,333.142548 330.617096,387.282410 330.631714,441.422150 
	C330.631897,442.081696 330.770752,442.741180 330.922577,444.091675 
	C356.748962,444.091675 382.613647,444.091675 408.861786,444.091675 
	C408.861786,456.506744 408.861786,468.231628 408.861786,480.362671 
	C371.690125,480.362671 334.504486,480.362671 296.699951,480.362671 
	C296.699951,478.415405 296.699921,476.635284 296.699921,474.855194 
	C296.699921,404.223602 296.726990,333.591980 296.623260,262.960541 
	C296.617828,259.276123 297.617798,256.948761 300.650055,254.667404 
	C328.858215,233.444473 356.924774,212.033417 385.505310,190.315369 
	C395.987183,182.292740 405.996155,174.631653 416.005096,166.970581 
z"/>
<path fill="#5B5759" opacity="1.000000" stroke="none" 
	d="
M415.814545,166.698990 
	C405.996155,174.631653 395.987183,182.292740 385.654358,189.998352 
	C368.242889,177.895493 351.090790,165.837067 334.121063,153.527222 
	C330.640137,151.002151 328.333435,150.596878 324.604248,153.451248 
	C272.666901,193.204803 220.561340,232.738571 168.615341,272.480896 
	C166.836548,273.841797 165.326111,276.816376 165.318466,279.044403 
	C165.135910,332.193787 165.215668,385.344055 165.100906,438.493835 
	C165.091904,442.660522 166.424637,443.925232 170.543030,443.896057 
	C193.201462,443.735260 215.862503,443.923004 238.520401,443.727875 
	C242.793716,443.691071 244.376938,444.675964 244.218567,449.238098 
	C243.873077,459.190796 244.111771,469.163788 244.111771,479.578003 
	C242.027985,479.706848 240.421753,479.892059 238.815430,479.892853 
	C204.992691,479.909607 171.169510,479.825012 137.347717,480.003937 
	C132.946442,480.027222 131.738052,478.834717 131.746475,474.416840 
	C131.881943,403.439301 131.865112,332.461456 131.770111,261.483795 
	C131.765640,258.136597 132.773804,255.975189 135.425552,253.973145 
	C181.252457,219.374191 227.020828,184.697708 272.802063,150.038254 
	C291.379700,135.973755 309.999573,121.964325 328.487366,107.782677 
	C331.102264,105.776825 332.802216,105.815353 335.427094,107.747787 
	C362.101959,127.385674 388.877014,146.887482 415.814545,166.698990 
z"/>
<path fill="#B59378" opacity="1.000000" stroke="none" 
	d="
M615.000000,608.217163 
	C643.783325,608.217224 672.066650,608.217224 700.653564,608.217224 
	C700.653564,619.622498 700.653564,630.528625 700.653564,641.796997 
	C509.265442,641.796997 317.943848,641.796997 126.324615,641.796997 
	C126.324615,630.787048 126.324615,619.866882 126.324615,608.217102 
	C289.076141,608.217102 451.788055,608.217102 615.000000,608.217163 
z"/>
<path fill="#B59378" opacity="1.000000" stroke="none" 
	d="
M137.060455,527.753967 
	C133.930450,527.753845 131.291138,527.753845 128.302689,527.753845 
	C128.302689,516.440918 128.302689,505.535980 128.302689,494.221954 
	C319.574066,494.221954 510.924652,494.221954 702.562134,494.221954 
	C702.562134,505.281433 702.562134,516.188538 702.562134,527.754089 
	C514.083374,527.754089 325.817261,527.754089 137.060455,527.753967 
z"/>
<path fill="#5B5759" opacity="1.000000" stroke="none" 
	d="
M415.209564,211.911469 
	C424.917938,204.154099 434.941925,196.564285 445.290100,188.953552 
	C454.970856,195.552032 464.394501,202.079025 473.670380,208.809647 
	C494.421600,223.866852 515.140686,238.969589 535.728943,254.247742 
	C537.391846,255.481705 538.883789,258.200836 538.888367,260.233337 
	C539.049072,332.224548 539.023193,404.216217 539.011902,476.207794 
	C539.011780,477.192413 538.863586,478.177002 538.748901,479.605560 
	C503.776001,479.605560 468.886963,479.605560 433.532776,479.605560 
	C433.532776,468.029480 433.532776,456.343018 433.532776,444.063660 
	C456.893494,444.063660 480.121948,444.063660 504.004150,444.063660 
	C504.004150,441.707306 504.004181,439.930725 504.004181,438.154144 
	C504.004150,385.493622 503.975250,332.833069 504.069336,280.172729 
	C504.075592,276.673004 503.119659,274.477905 500.131927,272.366486 
	C471.851654,252.381058 443.708099,232.202164 415.209564,211.911469 
z"/>
<path fill="#5B5657" opacity="1.000000" stroke="none" 
	d="
M477.143768,414.274353 
	C475.742676,414.809204 474.342651,415.808014 472.940369,415.811188 
	C435.282440,415.895966 397.624329,415.872772 359.966217,415.890411 
	C357.286774,415.891663 354.988586,415.859436 354.999939,412.102264 
	C355.123444,371.284302 355.171783,330.466125 355.817261,289.376587 
	C365.261017,297.716980 374.128082,306.328857 382.993896,315.413544 
	C382.992645,339.406769 382.992645,362.927185 382.992645,386.840668 
	C406.041840,386.840668 428.415649,386.840668 450.967773,387.140350 
	C459.812042,396.384796 468.477905,405.329559 477.143768,414.274353 
z"/>
<path fill="#B59278" opacity="1.000000" stroke="none" 
	d="
M477.200470,413.784546 
	C468.477905,405.329559 459.812042,396.384796 451.004700,386.684143 
	C450.863251,362.365112 450.863251,338.802002 450.863251,314.940735 
	C427.829498,314.940735 405.412323,314.940735 382.995117,314.940735 
	C374.128082,306.328857 365.261017,297.716980 356.039124,289.025208 
	C355.863678,285.404388 358.570892,286.403290 360.514740,286.399017 
	C382.497070,286.350830 404.479553,286.368469 426.461975,286.368439 
	C441.449982,286.368439 456.438019,286.368439 471.426025,286.368439 
	C473.216034,286.368439 475.006012,286.368439 477.257172,286.368439 
	C477.257172,329.094727 477.257172,371.194733 477.200470,413.784546 
z"/>
<path fill="#FAFAFA" opacity="1.000000" stroke="none" 
	d="
M624.446411,550.395264 
	C623.433777,552.338928 622.251953,554.081177 622.221436,555.843323 
	C622.043091,566.166260 622.302002,576.497986 622.053772,586.818054 
	C621.949585,591.148621 622.872498,593.964417 627.719360,594.315491 
	C628.491516,594.371399 629.203430,595.259888 629.721680,596.727295 
	C620.584534,596.727295 611.447388,596.727295 600.732483,596.727295 
	C602.792175,595.363159 603.608459,594.362671 604.447571,594.343262 
	C609.054749,594.236206 609.741577,591.483154 609.672668,587.648254 
	C609.520386,579.169067 609.625305,570.685303 609.625305,560.580627 
	C605.962891,565.032471 603.187317,568.377136 600.443848,571.747986 
	C596.348999,576.779419 592.219849,581.784607 588.213806,586.886047 
	C585.234131,590.680481 585.977600,592.668945 590.546997,594.034790 
	C591.857300,594.426575 593.063416,595.166992 594.317261,595.747559 
	C594.185059,596.135620 594.052917,596.523743 593.920715,596.911865 
	C584.848450,596.911865 575.776245,596.911865 566.704041,596.911865 
	C566.582886,596.520203 566.461792,596.128479 566.340698,595.736816 
	C567.337585,595.227356 568.312500,594.334473 569.335205,594.275818 
	C573.382446,594.044067 574.089478,591.679993 574.041748,588.189636 
	C573.903076,578.031982 573.830200,567.867493 574.067871,557.713501 
	C574.171204,553.294373 573.427856,550.151428 568.273743,549.822449 
	C567.355225,549.763855 566.470093,549.181824 565.569519,548.841553 
	C565.934265,548.284546 566.298950,547.727539 566.663635,547.170532 
	C575.632751,547.170532 584.601929,547.170532 593.571045,547.170532 
	C593.798706,547.447754 594.026367,547.724976 594.253967,548.002258 
	C593.076233,548.659973 591.764343,549.158997 590.752747,550.013489 
	C589.315491,551.227539 587.017334,552.662415 586.964111,554.073669 
	C586.620728,563.179749 586.788452,572.305176 586.788452,582.870605 
	C594.755249,573.024109 601.992371,564.281921 608.970886,555.338013 
	C611.233398,552.438293 608.339905,551.347046 606.308655,550.305908 
	C604.902283,549.585022 603.396790,549.057678 601.935547,548.443848 
	C602.056152,548.004395 602.176758,547.564880 602.297424,547.125427 
	C611.394897,547.125427 620.492432,547.125427 629.589905,547.125427 
	C629.735718,547.603882 629.881470,548.082336 630.027283,548.560791 
	C628.287842,549.108154 626.548462,549.655579 624.446411,550.395264 
z"/>
<path fill="#F8F8F8" opacity="1.000000" stroke="none" 
	d="
M651.213684,572.999207 
	C651.213684,565.024841 651.213684,557.550354 651.213684,550.167480 
	C640.330322,546.323853 639.483276,557.088379 633.712524,562.801392 
	C633.712524,556.605103 633.712524,551.933105 633.712524,546.932983 
	C649.537720,546.932983 665.625488,546.932983 682.048584,546.932983 
	C682.048584,551.583496 682.048584,556.292175 682.048584,561.000793 
	C681.760681,561.361145 681.472778,561.721497 681.184814,562.081787 
	C676.344849,556.885376 675.061890,546.288086 664.308838,550.000366 
	C664.308838,556.327576 664.308838,563.043640 664.308838,568.797546 
	C670.423401,567.820374 676.646729,566.055298 682.878235,566.025818 
	C690.595276,565.989197 694.455688,570.703003 694.773376,578.511719 
	C694.847839,580.341187 694.883423,582.182373 694.767456,584.007385 
	C694.447449,589.043884 694.247803,593.915466 701.200745,594.561829 
	C701.611267,594.599976 701.913391,595.804810 702.546875,596.994141 
	C693.152771,596.994141 684.286560,596.994141 673.721313,596.994141 
	C675.767029,595.530701 676.700867,594.346130 677.790344,594.179321 
	C681.167908,593.662476 682.199341,591.775757 682.020630,588.613953 
	C681.851746,585.624329 682.545349,582.454041 681.767151,579.668274 
	C681.001709,576.928101 679.230408,572.830811 677.250549,572.413635 
	C673.296448,571.580627 668.885376,572.775635 664.703491,573.402893 
	C664.323120,573.459900 664.065735,575.464111 664.042664,576.570251 
	C663.962891,580.399963 664.169495,584.240967 663.964417,588.061340 
	C663.783813,591.426636 664.858398,593.437622 668.376160,594.057617 
	C669.472412,594.250793 670.419189,595.292480 670.931702,596.811768 
	C661.707947,596.811768 652.484131,596.811768 643.260376,596.811768 
	C643.170227,596.457458 643.080078,596.103088 642.989990,595.748779 
	C643.861755,595.247009 644.731873,594.318237 645.605713,594.314758 
	C650.341309,594.295715 651.454529,591.657349 651.262695,587.489990 
	C651.048523,582.835449 651.213623,578.163452 651.213684,572.999207 
z"/>
<path fill="#FAFAFB" opacity="1.000000" stroke="none" 
	d="
M538.652100,546.627686 
	C542.562622,547.035400 546.054382,547.218872 549.444824,547.903992 
	C554.310974,548.887512 557.532776,551.861084 557.948730,556.982239 
	C558.368347,562.149902 555.451599,565.364929 550.928223,567.307129 
	C549.018005,568.127258 547.059448,568.834656 544.273315,569.926147 
	C547.538635,570.919373 550.063904,571.482727 552.425415,572.447021 
	C557.947266,574.701538 560.973938,579.117249 560.770996,584.225891 
	C560.551880,589.743103 557.754700,593.558594 551.811646,595.420105 
	C548.534058,596.446716 545.010071,597.053711 541.577698,597.149109 
	C531.939331,597.417114 522.290833,597.332031 512.646301,597.348633 
	C511.882446,597.349915 511.118042,597.060669 508.789368,596.590759 
	C510.879120,595.313171 511.772644,594.316956 512.717102,594.266052 
	C517.226440,594.022827 517.982666,591.355774 517.921753,587.492981 
	C517.761780,577.349915 517.731201,567.199951 517.934387,557.058472 
	C518.016663,552.953125 517.107605,550.259338 512.485657,549.897644 
	C511.612640,549.829407 510.815063,548.796936 509.982666,548.209351 
	C510.073578,547.682129 510.164490,547.154846 510.255402,546.627625 
	C519.566284,546.627625 528.877197,546.627625 538.652100,546.627686 
M531.453369,592.862915 
	C535.827026,595.635620 539.987610,595.257446 543.651917,591.679749 
	C546.935242,588.473999 547.489258,582.040405 545.130066,577.769104 
	C542.667908,573.311157 537.306702,571.532349 530.092224,573.184937 
	C530.380615,579.425232 530.675903,585.814270 531.453369,592.862915 
M530.321716,562.273438 
	C530.321716,564.215576 530.321716,566.157776 530.321716,568.005615 
	C537.912659,569.306519 543.097351,566.279114 543.933594,560.443237 
	C544.860657,553.973206 541.580200,549.973694 535.067749,549.296082 
	C531.436096,548.918274 529.817505,550.037170 530.268311,553.901672 
	C530.554077,556.351562 530.321777,558.861877 530.321716,562.273438 
z"/>
<path fill="#F9F9F9" opacity="1.000000" stroke="none" 
	d="
M391.771088,548.078491 
	C404.430084,555.107056 409.210388,565.833069 405.920654,579.143250 
	C403.121338,590.469299 393.346802,597.881897 380.564667,598.372192 
	C366.934753,598.894897 356.027039,592.106750 352.619598,580.577454 
	C349.681366,570.635864 351.353790,561.358215 358.588562,553.749329 
	C366.310760,545.627869 376.185608,544.461304 386.686066,546.427856 
	C388.299316,546.729980 389.837250,547.434204 391.771088,548.078491 
M376.425262,594.206116 
	C383.378876,595.134521 387.589966,592.848511 390.109192,586.322815 
	C393.394897,577.811768 393.251312,569.063110 391.041138,560.346741 
	C389.243713,553.258118 384.975128,549.452209 379.242706,549.369568 
	C373.542969,549.287476 368.257538,553.051208 367.364594,560.101013 
	C366.358246,568.045471 366.637268,576.274475 367.420380,584.275635 
	C367.850952,588.675049 370.748962,592.615845 376.425262,594.206116 
z"/>
<path fill="#F9F9FA" opacity="1.000000" stroke="none" 
	d="
M140.030365,546.624023 
	C151.310608,546.624084 162.097122,546.624084 173.036789,546.624084 
	C173.036789,551.751953 173.036789,556.450806 173.036789,561.149719 
	C172.731033,561.318054 172.425262,561.486450 172.119507,561.654846 
	C169.271469,557.911316 167.150604,552.793274 163.377991,550.797424 
	C159.324722,548.653137 153.720428,549.440613 148.373138,548.906921 
	C148.373138,555.565063 148.373138,561.596130 148.373138,567.160706 
	C154.545578,567.741882 160.727615,567.784729 166.661423,569.019958 
	C173.992447,570.545898 177.798889,575.375427 178.007553,581.673279 
	C178.216507,587.980164 174.171997,593.530945 167.588074,595.940979 
	C166.653763,596.283020 165.688446,596.789062 164.735474,596.793579 
	C152.513733,596.851379 140.291641,596.831787 127.607773,595.910461 
	C128.634186,595.325806 129.625565,594.323425 130.693497,594.233887 
	C134.055771,593.951904 135.269394,592.241882 135.247009,589.006226 
	C135.169846,577.847351 135.148300,566.686951 135.259140,555.528687 
	C135.291641,552.256836 133.858231,550.674561 130.800674,549.992126 
	C129.636139,549.732178 128.609726,548.853394 127.520370,548.256653 
	C127.647301,547.712463 127.774223,547.168213 127.901154,546.624023 
	C131.779648,546.624023 135.658142,546.624023 140.030365,546.624023 
M162.965103,588.180908 
	C165.756454,576.428101 159.841888,569.840271 147.995911,571.998779 
	C147.995911,577.357361 147.972733,582.791382 148.002701,588.225098 
	C148.030350,593.241028 150.705902,595.771423 155.522476,594.286804 
	C158.223572,593.454102 160.355743,590.775818 162.965103,588.180908 
z"/>
<path fill="#F8F8F8" opacity="1.000000" stroke="none" 
	d="
M198.149094,579.928101 
	C199.591858,572.242737 201.050613,564.953125 202.157379,557.610535 
	C202.805954,553.307678 201.572021,550.007935 196.295105,549.805847 
	C195.483414,549.774719 194.713577,548.651245 192.727417,547.095093 
	C209.527176,547.095093 224.770248,547.095093 240.013321,547.095093 
	C240.146729,547.475830 240.280121,547.856628 240.413528,548.237366 
	C239.176086,548.820801 237.990540,549.696838 236.690521,549.927429 
	C233.860092,550.429565 232.775681,552.012451 232.783646,554.752991 
	C232.817062,566.235718 232.640076,577.723083 232.972351,589.196289 
	C233.019608,590.827942 235.307404,592.537537 236.815964,593.932190 
	C237.770340,594.814575 239.202881,595.179688 240.420959,595.776855 
	C240.282043,596.163940 240.143127,596.551025 240.004211,596.938110 
	C230.913132,596.938110 221.822052,596.938110 212.730972,596.938110 
	C212.615372,596.516418 212.499756,596.094666 212.384140,595.672974 
	C213.667831,595.150146 215.154907,594.878601 216.186157,594.043884 
	C217.630783,592.874695 219.790482,591.309021 219.821671,589.873291 
	C220.103210,576.915405 219.986374,563.948730 219.986374,550.684204 
	C215.993820,550.684204 212.257614,550.684204 207.969437,550.684204 
	C207.353546,556.025635 206.931183,561.614807 206.023224,567.123962 
	C204.560318,576.000488 202.376038,584.694214 196.902649,592.115906 
	C194.141800,595.859619 190.667877,599.110168 185.711563,598.158081 
	C183.412964,597.716492 180.357391,595.565552 179.744308,593.550720 
	C179.100403,591.434631 180.226349,587.442383 181.934799,586.302673 
	C183.863617,585.015991 187.349609,585.695679 190.064728,586.119812 
	C191.314774,586.315125 192.341690,587.938660 194.050934,589.417297 
	C195.439911,586.225037 196.728561,583.263306 198.149094,579.928101 
z"/>
<path fill="#F9F9F9" opacity="1.000000" stroke="none" 
	d="
M498.111023,590.177002 
	C500.099518,587.008911 501.875244,584.153137 503.651001,581.297424 
	C504.030945,581.424744 504.410889,581.552124 504.790833,581.679443 
	C504.790833,586.746094 504.790833,591.812805 504.790833,596.971924 
	C488.459198,596.971924 472.620758,596.971924 456.782318,596.971924 
	C456.653564,596.558899 456.524811,596.145874 456.396057,595.732849 
	C457.633331,595.178650 459.100677,594.877930 460.054901,594.011841 
	C461.548584,592.656128 463.771088,590.948486 463.816498,589.337219 
	C464.140228,577.861450 464.146912,566.367615 463.811310,554.892517 
	C463.763611,553.262512 461.450104,551.560974 459.936493,550.161682 
	C458.979797,549.277344 457.561279,548.892517 456.349884,548.283630 
	C456.486877,547.870361 456.623840,547.457092 456.760834,547.043823 
	C471.616058,547.043823 486.471313,547.043823 501.669952,547.043823 
	C501.669952,550.894470 501.669952,554.936401 501.669952,560.291077 
	C497.929565,556.543335 495.304474,552.217468 491.515656,550.573242 
	C487.370148,548.774170 482.149170,549.453369 477.066467,549.024658 
	C477.066467,556.123840 477.066467,562.542419 477.066467,569.062195 
	C485.220795,571.529846 490.019135,567.361572 492.835297,559.134521 
	C493.194244,559.716187 493.553192,560.297791 493.912140,560.879456 
	C493.912140,567.626465 493.912140,574.373413 493.912140,581.120361 
	C493.572754,581.322937 493.233368,581.525452 492.893951,581.728027 
	C491.130157,579.108826 489.904877,575.623596 487.458405,574.102234 
	C484.749359,572.417603 480.923462,572.528809 477.036499,571.748047 
	C477.036499,578.545532 476.937378,584.475281 477.124451,590.395996 
	C477.159668,591.511902 478.073608,592.984192 479.029236,593.620300 
	C483.143860,596.359314 494.474731,594.362122 498.111023,590.177002 
z"/>
<path fill="#F9F9F9" opacity="1.000000" stroke="none" 
	d="
M303.002441,596.887085 
	C293.226166,596.887085 283.449890,596.887085 273.673615,596.887085 
	C273.569214,596.413330 273.464844,595.939575 273.360443,595.465759 
	C275.777832,594.615417 278.195190,593.765076 281.070221,592.753723 
	C279.752930,589.563660 278.736511,586.439331 277.164368,583.625366 
	C276.546448,582.519409 274.738129,581.625488 273.380646,581.478638 
	C270.420166,581.158264 267.328064,581.797363 264.421417,581.290100 
	C258.656494,580.284058 256.459442,583.183655 255.232376,588.176086 
	C254.402466,591.552673 254.657196,593.629700 258.647400,594.091309 
	C259.946686,594.241638 261.156921,595.161621 262.407867,595.729553 
	C262.280304,596.130981 262.152740,596.532410 262.025177,596.933838 
	C255.088135,596.933838 248.151108,596.933838 240.437531,596.933838 
	C241.418854,595.699524 241.825180,594.671021 242.352219,594.604980 
	C248.074356,593.887451 250.088333,589.666992 251.999680,585.048035 
	C257.311371,572.211853 262.802734,559.450073 268.024017,547.128784 
	C274.095428,545.066040 276.355713,547.976990 278.195801,552.812866 
	C282.377472,563.802551 287.327789,574.501038 291.456696,585.508850 
	C293.457123,590.842102 296.432739,594.286560 302.567902,595.325684 
	C303.006561,595.975220 303.004517,596.431152 303.002441,596.887085 
M260.075104,576.691528 
	C264.718170,577.125244 269.361267,577.558899 274.994202,578.085022 
	C272.122406,571.117249 269.815125,565.519165 267.077423,558.876709 
	C264.450531,565.307800 262.292999,570.589844 260.075104,576.691528 
z"/>
<path fill="#FCFCFC" opacity="1.000000" stroke="none" 
	d="
M446.537811,550.634766 
	C445.782379,552.547302 445.082184,554.232300 445.056915,555.927368 
	C444.937836,563.921448 445.121094,571.920410 444.977753,579.913635 
	C444.722076,594.169678 430.255005,602.970886 417.253204,596.875732 
	C412.277191,594.543152 409.508575,590.059570 410.868958,584.751099 
	C411.447662,582.492920 413.888641,579.482605 415.885620,579.136719 
	C418.238434,578.729065 422.030548,580.165955 423.310394,582.071289 
	C424.335846,583.597961 422.778961,587.106140 421.885315,589.559021 
	C421.502960,590.608521 419.894440,591.211304 418.784027,592.062256 
	C422.948486,595.454407 427.677795,594.881287 429.956543,590.764526 
	C431.181488,588.551575 431.840363,585.766846 431.906952,583.217957 
	C432.137390,574.395264 431.827393,565.558044 432.072540,556.736145 
	C432.182739,552.770630 431.191620,550.351318 426.923553,549.848938 
	C426.001923,549.740479 425.190643,548.694275 424.820068,547.006348 
	C433.718994,547.006348 442.617889,547.006348 451.749542,547.006348 
	C452.344696,551.009460 448.559235,549.353149 446.537811,550.634766 
z"/>
<path fill="#FCFCFC" opacity="1.000000" stroke="none" 
	d="
M303.429321,597.095825 
	C303.004517,596.431152 303.006561,595.975220 302.998291,595.291565 
	C309.383179,594.223572 310.283722,590.174438 309.993164,584.509277 
	C309.532928,575.536072 309.748322,566.519470 309.924988,557.526123 
	C310.006500,553.376526 309.410919,550.229736 304.382935,549.873108 
	C303.538300,549.813232 302.767242,548.715942 300.717529,547.142578 
	C317.443695,547.142578 332.593140,547.142578 347.848206,547.142578 
	C347.848206,551.727844 347.848206,556.358521 347.848206,562.030090 
	C346.380249,561.041382 344.984680,560.632141 344.683746,559.818237 
	C340.818024,549.363586 332.746094,548.025269 322.368439,549.934082 
	C322.368439,552.239075 322.368439,554.817139 322.368439,557.395203 
	C322.368439,566.891846 322.507874,576.391418 322.309753,585.883911 
	C322.210388,590.645935 323.000031,594.189453 328.770416,594.308655 
	C329.492950,594.323608 330.196198,595.272827 330.908356,595.789246 
	C330.841766,596.294312 330.775146,596.799438 330.708527,597.304504 
	C321.757751,597.304504 312.806946,597.304504 303.429321,597.095825 
z"/>
<path fill="#F9F9FA" opacity="1.000000" stroke="none" 
	d="
M501.632568,691.131836 
	C500.828339,690.489380 500.456665,689.849548 500.084991,689.209717 
	C503.732697,689.045715 502.975098,686.342346 502.984283,684.124207 
	C503.006989,678.639587 503.214111,673.141724 502.893494,667.675781 
	C502.743866,665.124939 501.543121,662.635742 500.638550,659.492065 
	C503.134277,659.464539 506.750732,656.941711 510.586945,660.058716 
	C510.911713,660.322510 511.761139,660.313232 512.145020,660.074341 
	C516.343262,657.462097 520.388733,657.431458 523.836914,661.165894 
	C527.275696,664.890137 527.816833,669.494324 526.409424,674.192444 
	C524.398987,680.903687 519.767883,683.020813 510.843109,681.573425 
	C509.624756,685.641357 509.871429,688.962341 515.513062,689.828796 
	C515.306702,690.263977 515.100342,690.699219 514.893982,691.134399 
	C510.617706,691.134399 506.341431,691.134399 501.632568,691.131836 
M518.858154,674.922852 
	C518.547302,671.518860 518.641663,667.998596 517.715942,664.770996 
	C517.370667,663.567139 514.620911,662.404541 513.010010,662.460083 
	C512.071960,662.492371 510.710815,664.884033 510.442383,666.376465 
	C510.010681,668.776794 509.898071,671.411682 510.448181,673.760681 
	C510.976715,676.017456 512.518433,678.036926 513.614990,680.160706 
	C515.314392,678.692993 517.013794,677.225281 518.858154,674.922852 
z"/>
<path fill="#EFEFF0" opacity="1.000000" stroke="none" 
	d="
M249.866852,681.161316 
	C244.978333,681.161316 240.569031,681.161316 235.645508,681.161316 
	C240.515778,675.991699 240.490402,664.112610 235.734451,659.563965 
	C240.290756,659.563965 244.473145,659.563965 249.167908,659.563965 
	C244.336456,664.857788 246.806229,671.093689 246.749542,676.888672 
	C246.739273,677.938110 250.789093,679.027161 253.101868,680.165466 
	C255.213623,672.034424 254.458191,663.312988 251.391891,659.682007 
	C256.016113,659.682007 260.234650,659.682007 263.429626,659.682007 
	C262.740692,662.623413 261.296143,665.544067 261.598450,668.271057 
	C262.037506,672.231628 258.507660,677.446106 264.939972,680.196533 
	C265.920563,680.615845 265.076721,685.301819 265.076721,688.378174 
	C258.055481,681.161438 258.055481,681.161438 249.866852,681.161316 
z"/>
<path fill="#F3F3F3" opacity="1.000000" stroke="none" 
	d="
M280.117371,659.979492 
	C279.083618,664.207947 277.914886,668.075500 276.746155,671.942993 
	C284.939331,667.588745 286.839050,663.356689 282.863739,659.699097 
	C287.764954,659.699097 292.130096,659.699097 296.952423,659.699097 
	C291.954865,663.814514 291.964508,676.851501 297.146118,680.684814 
	C292.248535,680.684814 287.960480,680.684814 284.715881,680.684814 
	C285.262848,676.749817 285.845825,672.555908 286.539520,667.565247 
	C278.652405,673.709656 277.199646,676.934082 280.294800,680.814514 
	C275.801636,680.814514 271.499084,680.814514 266.818115,680.814514 
	C272.172607,676.069702 272.142334,663.949280 266.435364,659.618469 
	C271.408051,659.618469 275.695221,659.618469 280.117371,659.979492 
z"/>
<path fill="#F1F1F1" opacity="1.000000" stroke="none" 
	d="
M628.009827,679.469482 
	C629.164124,675.618408 630.086975,672.098450 631.009888,668.578552 
	C622.595886,674.016113 621.170959,677.188477 625.201721,680.629150 
	C620.243958,680.629150 615.880615,680.629150 611.321838,680.629150 
	C616.392822,676.258728 616.364197,663.936035 610.895813,659.635620 
	C615.763916,659.635620 620.068237,659.635620 623.349487,659.635620 
	C622.752258,663.854858 622.151367,668.099915 621.550476,672.344971 
	C621.927734,672.507812 622.304932,672.670654 622.682129,672.833496 
	C625.244507,669.756104 627.806824,666.678711 630.554565,663.378662 
	C629.539062,662.207764 628.640564,661.171631 627.307800,659.634888 
	C632.112976,659.634888 636.407043,659.634888 640.749756,659.634888 
	C636.498596,664.914185 636.553101,676.999756 640.697510,681.582825 
	C636.391113,680.988770 632.084778,680.394714 628.009827,679.469482 
z"/>
<path fill="#F3F3F3" opacity="1.000000" stroke="none" 
	d="
M596.170166,661.164307 
	C596.208435,660.386902 596.591797,659.310364 597.012207,659.295715 
	C600.791382,659.164001 604.577026,659.218750 607.196045,659.218750 
	C606.559509,663.073853 605.592957,666.575500 605.507324,670.098572 
	C605.419189,673.729919 603.651855,678.147644 608.527832,680.796143 
	C604.196167,680.796143 599.864563,680.796143 596.315613,680.796143 
	C597.112427,677.551208 597.930847,674.218323 598.867493,670.403931 
	C595.401855,670.403931 593.005310,670.403931 589.583740,670.403931 
	C590.382385,674.033081 591.084595,677.224182 591.843445,680.672485 
	C588.517212,680.672485 584.199646,680.672485 579.523010,680.672485 
	C584.456604,676.512634 584.398132,663.643677 579.039795,659.738525 
	C584.015686,659.738525 588.312622,659.738525 592.453247,659.738525 
	C591.566650,661.997131 590.545288,664.598999 589.261108,667.870483 
	C592.760193,667.870483 595.170959,667.870483 598.759338,667.870483 
	C597.961670,665.537537 597.247070,663.447571 596.170166,661.164307 
z"/>
<path fill="#F3F3F3" opacity="1.000000" stroke="none" 
	d="
M425.604126,667.747192 
	C428.240479,668.025330 430.523071,668.025330 433.903015,668.025330 
	C432.874939,664.947998 432.034119,662.431152 431.117554,659.687622 
	C434.716797,659.687622 439.015350,659.687622 442.164185,659.687622 
	C441.594788,663.030396 440.596191,666.527283 440.511505,670.046143 
	C440.424286,673.668518 438.652008,678.089722 443.529663,680.766235 
	C439.200134,680.766235 434.870575,680.766235 431.273376,680.766235 
	C432.080505,677.607727 432.933044,674.271545 433.915344,670.427551 
	C430.463867,670.427551 428.068115,670.427551 424.612854,670.427551 
	C425.387085,673.977783 426.080444,677.157043 426.837830,680.630005 
	C423.542480,680.630005 419.219208,680.630005 414.706757,680.630005 
	C419.417023,676.334900 419.384857,663.570923 413.989288,659.787354 
	C419.109894,659.787354 423.427795,659.787354 426.945221,659.787354 
	C426.392426,662.292969 425.821411,664.881042 425.604126,667.747192 
z"/>
<path fill="#F3F3F4" opacity="1.000000" stroke="none" 
	d="
M215.383881,670.506287 
	C215.296021,673.934387 215.554840,677.076355 215.849213,680.650146 
	C212.868149,680.650146 208.538483,680.650146 203.903870,680.650146 
	C209.164948,676.271240 209.153198,664.119141 203.656281,659.628357 
	C208.448639,659.628357 212.727325,659.628357 216.690414,659.628357 
	C215.885040,662.212830 215.076355,664.807861 214.106461,667.920288 
	C217.444778,667.920288 219.864380,667.920288 223.466995,667.920288 
	C222.446503,664.877258 221.568283,662.258484 220.652710,659.528320 
	C224.325775,659.528320 228.517212,659.528320 231.661606,659.528320 
	C231.119232,663.020142 230.169876,666.550842 230.134323,670.090759 
	C230.099182,673.591064 230.986862,677.100769 231.528229,681.031128 
	C232.112274,680.956238 231.360687,681.129578 230.607681,681.135986 
	C227.133102,681.165833 223.658157,681.149109 220.730728,681.149109 
	C221.676620,677.645386 222.571899,674.329224 223.681213,670.220154 
	C220.278046,670.220154 218.004303,670.220154 215.383881,670.506287 
z"/>
<path fill="#F5F5F6" opacity="1.000000" stroke="none" 
	d="
M654.252747,659.208252 
	C655.117371,659.833984 656.081177,660.630981 655.938171,661.052734 
	C655.221191,663.167358 654.214661,665.183777 653.014160,667.904846 
	C656.578369,667.904846 658.991150,667.904846 662.549194,667.904846 
	C661.600220,665.026123 660.742554,662.424255 659.826233,659.644531 
	C663.425781,659.644531 667.699158,659.644531 673.161682,659.644531 
	C667.912415,662.357788 668.968933,666.488892 669.229614,670.178894 
	C669.472473,673.617126 667.045288,678.026978 672.167664,680.616150 
	C667.854797,680.616150 663.541992,680.616150 660.264709,680.616150 
	C661.002136,677.378784 661.753479,674.080139 662.602173,670.353882 
	C659.281494,670.353882 657.006409,670.353882 653.650574,670.353882 
	C654.236816,673.855774 654.799377,677.215942 655.394165,680.768982 
	C652.172668,680.768982 647.861877,680.768982 643.446655,680.768982 
	C648.417175,675.547363 648.339294,663.637939 643.373840,659.206604 
	C646.863098,659.206604 650.352356,659.206604 654.252747,659.208252 
z"/>
<path fill="#F5F5F6" opacity="1.000000" stroke="none" 
	d="
M488.123291,662.261353 
	C489.452393,660.812256 490.491669,659.120544 491.867035,658.777771 
	C493.380188,658.400757 495.469391,658.867981 496.780701,659.750366 
	C497.465790,660.211426 497.559357,663.184692 496.973663,663.564697 
	C495.714478,664.381531 493.848846,664.342773 492.217438,664.461731 
	C491.678619,664.501038 491.096680,663.949341 490.309265,663.555054 
	C489.556122,665.177429 488.871704,666.651672 488.362762,667.747986 
	C491.877777,672.085022 495.224152,676.213989 498.812042,680.640991 
	C495.762756,680.640991 492.646454,680.640991 489.348907,680.640991 
	C488.134552,678.028992 486.870636,675.034546 485.319672,672.197021 
	C484.992340,671.598145 483.613281,671.574097 481.405396,670.860901 
	C482.409790,674.668091 483.157623,677.502563 483.979340,680.617188 
	C480.544037,680.617188 476.222321,680.617188 471.690308,680.617188 
	C476.438751,676.413513 476.385773,663.604919 471.037231,659.756836 
	C476.026581,659.756836 480.317169,659.756836 484.242645,659.756836 
	C483.406891,662.331238 482.438629,665.313782 481.240082,669.005676 
	C487.304321,669.424927 486.803833,665.239746 488.123291,662.261353 
z"/>
<path fill="#F6F6F6" opacity="1.000000" stroke="none" 
	d="
M133.182159,671.116333 
	C136.164291,669.991272 138.830460,669.109985 141.442459,668.090088 
	C144.230698,667.001282 144.895096,662.768188 142.473389,661.013184 
	C141.676941,660.436035 140.293198,660.302307 139.300766,660.521545 
	C138.822357,660.627258 138.788345,662.147278 138.271255,662.805542 
	C137.330887,664.002686 136.287689,665.752136 135.086700,665.932129 
	C133.902847,666.109680 132.470215,664.627869 131.146729,663.874084 
	C131.973541,662.566833 132.656616,660.267090 133.651901,660.122925 
	C138.116745,659.476196 142.751068,658.872925 147.148422,659.495544 
	C148.697144,659.714783 150.403687,663.346497 150.860687,665.653442 
	C151.494308,668.851868 150.793045,672.291321 151.101669,675.586548 
	C151.278946,677.479309 152.322342,679.291016 153.206406,681.791321 
	C153.807663,681.269104 153.481644,681.803528 153.121384,681.827698 
	C147.103760,682.231201 141.123474,680.015930 134.981964,681.851868 
	C133.858292,682.187744 130.616165,679.620911 130.512726,678.232910 
	C130.345734,675.991943 131.972931,673.617310 133.182159,671.116333 
M143.906357,672.519653 
	C143.539413,671.596558 143.172455,670.673401 142.805511,669.750305 
	C141.013977,671.406128 139.083954,672.951721 137.583115,674.838745 
	C137.363037,675.115479 139.041351,677.832275 140.086273,678.014465 
	C143.524078,678.613708 144.137711,676.200378 143.906357,672.519653 
z"/>
<path fill="#F6F6F6" opacity="1.000000" stroke="none" 
	d="
M392.217102,680.914856 
	C390.946899,680.648743 389.965088,680.520203 389.042206,680.697815 
	C386.967743,681.097107 384.743347,682.387085 382.912445,681.943237 
	C380.806702,681.432678 377.806671,679.691589 377.477295,678.031982 
	C377.075439,676.007263 378.452515,672.782288 380.142731,671.401306 
	C382.315186,669.626221 385.578522,669.206787 388.343750,668.130981 
	C391.124237,667.049194 391.903198,662.885803 389.562164,661.077942 
	C388.784271,660.477112 387.405975,660.301941 386.406403,660.489075 
	C385.910339,660.581909 385.770111,662.027161 385.257355,662.699097 
	C384.334351,663.908630 383.381317,665.721313 382.200226,665.931824 
	C381.016296,666.142822 379.538422,664.704285 378.189392,663.988708 
	C379.120392,662.605225 379.888367,660.198853 381.011353,660.019714 
	C385.302612,659.335632 389.801544,658.773804 394.023407,659.436707 
	C395.631866,659.689270 397.355377,663.224243 397.856567,665.518799 
	C398.514587,668.530945 397.752777,671.825500 398.105103,674.941650 
	C398.352234,677.127136 399.440491,679.217468 400.424347,682.162170 
	C398.095947,681.875732 395.314117,681.533508 392.217102,680.914856 
M388.249969,670.125061 
	C387.549622,670.552185 386.371704,670.863464 386.234894,671.427307 
	C385.747528,673.435974 385.614319,675.530518 385.347015,677.592590 
	C386.996338,677.401855 389.889557,677.577454 390.072815,676.955078 
	C390.751190,674.651306 392.993652,671.654053 388.249969,670.125061 
z"/>
<path fill="#F6F6F6" opacity="1.000000" stroke="none" 
	d="
M316.404114,672.582520 
	C319.975128,670.877380 323.370911,669.612976 326.573334,667.971313 
	C327.597229,667.446411 328.726196,665.909729 328.704834,664.858276 
	C328.675568,663.415344 327.974609,661.352417 326.881805,660.708130 
	C325.088989,659.651184 323.024750,659.553833 323.180328,663.013000 
	C323.225037,664.007080 321.483032,665.823975 320.419922,665.936279 
	C319.109741,666.074829 317.652893,664.826172 316.259430,664.176941 
	C316.955750,662.822937 317.502472,660.414612 318.373383,660.291016 
	C322.984802,659.636719 327.730408,659.070312 332.311157,659.566284 
	C333.736176,659.720642 335.454559,663.167236 335.859650,665.327698 
	C336.461792,668.539001 335.784760,671.968994 336.100983,675.262817 
	C336.293427,677.267395 337.329559,679.190918 338.324554,682.158508 
	C335.428497,681.784302 332.001129,681.341431 327.065582,680.703613 
	C324.880615,682.032532 320.882874,683.804321 316.839111,680.518799 
	C314.240021,678.406982 314.479950,675.599304 316.404114,672.582520 
M327.270966,677.880798 
	C327.996155,675.306580 328.721344,672.732361 329.446533,670.158081 
	C328.712677,669.764526 327.978821,669.370911 327.244995,668.977356 
	C325.630829,671.033325 324.016693,673.089294 322.402496,675.145264 
	C323.760040,676.130554 325.117584,677.115845 327.270966,677.880798 
z"/>
<path fill="#F3F3F3" opacity="1.000000" stroke="none" 
	d="
M459.056702,669.152222 
	C457.276154,669.152222 455.979187,669.152222 454.686188,669.152222 
	C454.619995,678.064758 457.332581,679.343933 468.766205,676.134155 
	C466.643463,681.238403 460.694458,683.536316 454.431122,681.671387 
	C448.790405,679.991760 445.468018,674.503052 446.466461,668.513123 
	C447.589539,661.775208 452.803131,657.653931 459.473450,658.231079 
	C465.841705,658.782104 468.559265,661.795898 468.881195,669.152161 
	C465.757843,669.152161 462.649048,669.152161 459.056702,669.152222 
M460.970398,664.032166 
	C459.788116,662.783875 458.605835,661.535583 457.423553,660.287292 
	C456.137024,662.267883 454.850525,664.248474 453.564026,666.229065 
	C453.970734,666.687012 454.377441,667.144897 454.784180,667.602844 
	C456.541473,665.651123 460.164490,669.897705 460.970398,664.032166 
z"/>
<path fill="#F3F3F4" opacity="1.000000" stroke="none" 
	d="
M691.244690,681.777588 
	C678.821716,682.777954 672.247375,675.709961 675.893494,665.835999 
	C677.800659,660.671387 682.912781,657.610168 688.534302,658.266235 
	C694.653015,658.980408 697.017212,661.645813 697.674988,668.967651 
	C692.889709,668.967651 688.130920,668.967651 683.382690,668.967651 
	C683.249451,677.916809 686.330200,679.371277 698.191345,677.060608 
	C696.005127,678.584534 693.818909,680.108459 691.244690,681.777588 
M685.605774,667.257568 
	C687.013306,667.155701 688.420837,667.053833 691.343079,666.842346 
	C689.525146,663.986267 688.366211,662.058716 686.992249,660.299011 
	C686.917786,660.203674 684.311584,661.380493 684.163513,662.197144 
	C683.873718,663.794922 684.488342,665.556641 685.605774,667.257568 
z"/>
<path fill="#F5F5F5" opacity="1.000000" stroke="none" 
	d="
M529.952942,668.375488 
	C532.436768,660.840881 537.200317,657.438354 543.517273,658.288513 
	C549.647949,659.113708 552.142822,662.128662 552.092651,669.032227 
	C547.520569,669.032227 542.927612,669.032227 538.161621,669.032227 
	C537.700195,673.386780 538.539307,677.129150 542.864746,677.775146 
	C545.969849,678.238892 549.349426,676.865051 552.532471,676.323547 
	C549.344727,681.459595 544.295532,683.412354 538.229675,681.778564 
	C532.501221,680.235657 530.000916,676.324036 529.952942,668.375488 
M542.859131,660.717712 
	C537.290588,659.996521 538.209534,663.738037 538.101746,666.811646 
	C540.528931,666.811646 542.543823,666.811646 545.087097,666.811646 
	C544.446289,664.568787 543.961548,662.872070 542.859131,660.717712 
z"/>
<path fill="#F5F5F5" opacity="1.000000" stroke="none" 
	d="
M179.676788,674.904358 
	C176.143280,663.778503 185.455597,656.440308 193.789963,658.599243 
	C199.208481,660.002808 200.979767,662.144592 201.250046,668.947144 
	C196.667953,668.947144 192.087326,668.947144 187.564575,668.947144 
	C186.412003,677.440735 189.180496,678.789490 201.866211,676.049011 
	C199.469421,680.478027 195.899750,682.136902 191.352722,682.145386 
	C186.145645,682.155090 181.918045,680.512146 179.676788,674.904358 
M193.515244,666.543640 
	C193.548843,665.891357 193.844406,665.085144 193.568039,664.615051 
	C192.655899,663.063477 191.536972,661.633484 190.497421,660.156799 
	C189.328888,661.718994 188.064758,663.222473 187.047974,664.877869 
	C186.727951,665.398926 187.071381,666.327454 187.110306,667.053650 
	C189.270752,667.053650 191.053818,667.053650 193.515244,666.543640 
z"/>
<path fill="#EFEFF0" opacity="1.000000" stroke="none" 
	d="
M362.202484,668.158447 
	C363.528992,666.448669 364.768005,664.842224 365.185364,663.044922 
	C365.348114,662.344055 363.410675,660.297852 362.863190,660.447632 
	C361.093811,660.931946 359.329956,661.930115 357.941315,663.157227 
	C356.802948,664.163269 356.203369,665.779114 354.638184,668.290894 
	C354.638184,664.657227 354.638184,662.332703 354.638184,659.702698 
	C358.175598,659.263062 362.038879,658.132935 365.727661,658.549133 
	C368.261261,658.835083 371.153625,660.840637 372.657684,662.952148 
	C373.263458,663.802612 370.589844,666.989014 369.848419,668.321838 
	C371.206390,670.777893 374.201324,673.858948 373.557953,675.579956 
	C372.600861,678.140259 369.353180,680.605957 366.561554,681.509888 
	C363.625366,682.460632 359.863953,682.172302 356.876984,681.179810 
	C354.997742,680.555420 353.879333,677.641174 352.419617,675.754150 
	C353.682831,674.929321 355.907471,673.243225 356.059967,673.413513 
	C357.524872,675.048645 358.640289,676.996948 359.389496,679.246338 
	C362.172089,680.819458 364.782898,679.986938 365.755646,676.379333 
	C367.055084,671.560059 364.108673,669.890869 359.829346,669.004944 
	C360.481750,668.731812 361.134125,668.458679 362.202484,668.158447 
z"/>
<path fill="#F3F3F3" opacity="1.000000" stroke="none" 
	d="
M302.599792,669.123535 
	C302.958496,664.961304 302.611023,661.636658 298.269562,659.481934 
	C301.889343,659.095825 305.509155,658.709717 309.440155,658.290405 
	C309.440155,666.180237 309.958221,673.824585 309.282654,681.361938 
	C308.701233,687.848816 303.679596,691.628418 297.591248,691.010498 
	C295.874146,690.836243 294.206665,689.152344 292.808533,687.847717 
	C292.571777,687.626709 294.021118,684.831238 294.350677,684.898376 
	C296.185211,685.271973 297.948914,686.090820 299.658722,686.918640 
	C300.154297,687.158630 300.392548,687.930237 300.748779,688.458130 
	C301.248596,688.455750 301.748413,688.453369 302.248230,688.450989 
	C302.365417,682.168701 302.482605,675.886475 302.599792,669.123535 
z"/>
<path fill="#EFEFF0" opacity="1.000000" stroke="none" 
	d="
M553.970581,663.775146 
	C554.044739,662.063721 554.118958,660.793274 554.202271,659.367310 
	C562.119507,659.367310 569.708496,659.367310 577.663940,659.367310 
	C577.663940,661.881958 577.663940,664.343811 577.663940,667.046387 
	C575.381897,664.768311 573.279785,662.669922 570.637451,660.032166 
	C568.630432,670.759277 569.546387,677.721497 573.392456,680.753723 
	C568.321716,680.753723 563.762268,680.753723 558.849243,680.753723 
	C565.640930,675.028137 561.275757,667.920166 562.602600,661.660706 
	C562.082336,661.290771 561.562073,660.920837 561.041809,660.550903 
	C558.973633,662.634583 556.905518,664.718262 554.529968,667.111633 
	C554.342773,666.142578 554.156738,665.179382 553.970581,663.775146 
z"/>
<path fill="#F5F5F5" opacity="1.000000" stroke="none" 
	d="
M175.159668,666.176636 
	C172.204285,661.142029 172.204285,661.142029 166.864883,661.482727 
	C168.403244,667.776733 164.126251,674.868164 170.213455,680.813049 
	C165.606949,680.813049 161.088684,680.813049 156.527237,680.813049 
	C161.312332,675.181213 161.287781,663.999939 156.042847,659.602295 
	C163.164673,659.602295 169.824738,659.602295 177.649780,659.602295 
	C176.812592,662.098450 176.066208,664.323853 175.159668,666.176636 
z"/>
<path fill="#EFEFF0" opacity="1.000000" stroke="none" 
	d="
M302.924072,653.383179 
	C302.674408,651.169739 302.263367,648.957092 303.039459,647.300659 
	C303.367615,646.600220 306.595825,646.440796 307.766266,647.190369 
	C308.861359,647.891724 308.978333,650.120361 309.525818,651.676880 
	C307.431458,652.320862 305.337067,652.964844 302.924072,653.383179 
z"/>
<path fill="#0D1114" opacity="1.000000" stroke="none" 
	d="
M382.993896,315.413544 
	C405.412323,314.940735 427.829498,314.940735 450.863251,314.940735 
	C450.863251,338.802002 450.863251,362.365112 450.826355,386.384460 
	C428.415649,386.840668 406.041840,386.840668 382.992645,386.840668 
	C382.992645,362.927185 382.992645,339.406769 382.993896,315.413544 
z"/>
<path fill="#181C1F" opacity="1.000000" stroke="none" 
	d="
M531.212280,592.533081 
	C530.675903,585.814270 530.380615,579.425232 530.092224,573.184937 
	C537.306702,571.532349 542.667908,573.311157 545.130066,577.769104 
	C547.489258,582.040405 546.935242,588.473999 543.651917,591.679749 
	C539.987610,595.257446 535.827026,595.635620 531.212280,592.533081 
z"/>
<path fill="#1B1F22" opacity="1.000000" stroke="none" 
	d="
M530.321777,561.809265 
	C530.321777,558.861877 530.554077,556.351562 530.268311,553.901672 
	C529.817505,550.037170 531.436096,548.918274 535.067749,549.296082 
	C541.580200,549.973694 544.860657,553.973206 543.933594,560.443237 
	C543.097351,566.279114 537.912659,569.306519 530.321716,568.005615 
	C530.321716,566.157776 530.321716,564.215576 530.321777,561.809265 
z"/>
<path fill="#111518" opacity="1.000000" stroke="none" 
	d="
M376.050659,594.117676 
	C370.748962,592.615845 367.850952,588.675049 367.420380,584.275635 
	C366.637268,576.274475 366.358246,568.045471 367.364594,560.101013 
	C368.257538,553.051208 373.542969,549.287476 379.242706,549.369568 
	C384.975128,549.452209 389.243713,553.258118 391.041138,560.346741 
	C393.251312,569.063110 393.394897,577.811768 390.109192,586.322815 
	C387.589966,592.848511 383.378876,595.134521 376.050659,594.117676 
z"/>
<path fill="#14171A" opacity="1.000000" stroke="none" 
	d="
M162.854675,588.554932 
	C160.355743,590.775818 158.223572,593.454102 155.522476,594.286804 
	C150.705902,595.771423 148.030350,593.241028 148.002701,588.225098 
	C147.972733,582.791382 147.995911,577.357361 147.995911,571.998779 
	C159.841888,569.840271 165.756454,576.428101 162.854675,588.554932 
z"/>
<path fill="#1D2124" opacity="1.000000" stroke="none" 
	d="
M260.105286,576.281677 
	C262.292999,570.589844 264.450531,565.307800 267.077423,558.876709 
	C269.815125,565.519165 272.122406,571.117249 274.994202,578.085022 
	C269.361267,577.558899 264.718170,577.125244 260.105286,576.281677 
z"/>
<path fill="#1B1F22" opacity="1.000000" stroke="none" 
	d="
M518.785645,675.340210 
	C517.013794,677.225281 515.314392,678.692993 513.614990,680.160706 
	C512.518433,678.036926 510.976715,676.017456 510.448181,673.760681 
	C509.898071,671.411682 510.010681,668.776794 510.442383,666.376465 
	C510.710815,664.884033 512.071960,662.492371 513.010010,662.460083 
	C514.620911,662.404541 517.370667,663.567139 517.715942,664.770996 
	C518.641663,667.998596 518.547302,671.518860 518.785645,675.340210 
z"/>
<path fill="#212528" opacity="1.000000" stroke="none" 
	d="
M143.906494,672.954712 
	C144.137711,676.200378 143.524078,678.613708 140.086273,678.014465 
	C139.041351,677.832275 137.363037,675.115479 137.583115,674.838745 
	C139.083954,672.951721 141.013977,671.406128 142.805511,669.750305 
	C143.172455,670.673401 143.539413,671.596558 143.906494,672.954712 
z"/>
<path fill="#212528" opacity="1.000000" stroke="none" 
	d="
M388.649261,670.011108 
	C392.993652,671.654053 390.751190,674.651306 390.072815,676.955078 
	C389.889557,677.577454 386.996338,677.401855 385.347015,677.592590 
	C385.614319,675.530518 385.747528,673.435974 386.234894,671.427307 
	C386.371704,670.863464 387.549622,670.552185 388.649261,670.011108 
z"/>
<path fill="#212528" opacity="1.000000" stroke="none" 
	d="
M326.873047,677.990967 
	C325.117584,677.115845 323.760040,676.130554 322.402527,675.145264 
	C324.016693,673.089294 325.630829,671.033325 327.244995,668.977356 
	C327.978821,669.370911 328.712677,669.764526 329.446533,670.158081 
	C328.721344,672.732361 327.996155,675.306580 326.873047,677.990967 
z"/>
<path fill="#181C1F" opacity="1.000000" stroke="none" 
	d="
M460.983582,664.452454 
	C460.164490,669.897705 456.541473,665.651123 454.784180,667.602844 
	C454.377441,667.144897 453.970734,666.687012 453.564026,666.229065 
	C454.850525,664.248474 456.137024,662.267883 457.423553,660.287292 
	C458.605835,661.535583 459.788116,662.783875 460.983582,664.452454 
z"/>
<path fill="#212528" opacity="1.000000" stroke="none" 
	d="
M685.167236,667.254028 
	C684.488342,665.556641 683.873718,663.794922 684.163513,662.197144 
	C684.311584,661.380493 686.917786,660.203674 686.992249,660.299011 
	C688.366211,662.058716 689.525146,663.986267 691.343079,666.842346 
	C688.420837,667.053833 687.013306,667.155701 685.167236,667.254028 
z"/>
<path fill="#1D2124" opacity="1.000000" stroke="none" 
	d="
M543.167969,660.946533 
	C543.961548,662.872070 544.446289,664.568787 545.087097,666.811646 
	C542.543823,666.811646 540.528931,666.811646 538.101746,666.811646 
	C538.209534,663.738037 537.290588,659.996521 543.167969,660.946533 
z"/>
<path fill="#1D2124" opacity="1.000000" stroke="none" 
	d="
M193.176071,666.798645 
	C191.053818,667.053650 189.270752,667.053650 187.110306,667.053650 
	C187.071381,666.327454 186.727951,665.398926 187.047974,664.877869 
	C188.064758,663.222473 189.328888,661.718994 190.497421,660.156799 
	C191.536972,661.633484 192.655899,663.063477 193.568039,664.615051 
	C193.844406,665.085144 193.548843,665.891357 193.176071,666.798645 
z"/>
</svg>